<svg xmlns="http://www.w3.org/2000/svg" width="800" height="300" viewBox="0 0 800 300" role="img" aria-labelledby="title desc" shape-rendering="geometricPrecision">
<title id="title">Atlas Impact V2 masthead lockup for light backgrounds</title>
<desc id="desc">Atlas V3 angled-gap mark positioned to the left of the ATLAS wordmark, with IMPACT below. IMPACT is optically tracked to exactly match the visible width of ATLAS. Flat Atlas brand colours and transparent background.</desc>

<!-- Transparent background by design. -->
<g id="atlas-v3-mark" transform="translate(62 25) scale(0.244140625)">
  <g transform="translate(-18.071 103.059) scale(1.035)">
    <path d="M 195.764 713.936 A 425 425 0 1 1 828.236 713.936 L 753.272 539.602 A 265 265 0 1 0 270.728 539.602 Z" fill="#2563EB"/>
    <path d="M 340 700 L 512 300 L 684 700" fill="none" stroke="#111111" stroke-width="170" stroke-linecap="round" stroke-linejoin="round"/>
    <rect x="442" y="720" width="140" height="56" rx="28" fill="#0EA5A3"/>
  </g>
</g>

<g id="atlas-wordmark">
<path d="M5 0H396L487 287H1016L1104 0H1506L991 1490H517ZM577 568 604 655C656 821 704 984 755 1167C805 984 853 821 902 655L929 568Z" transform="translate(336.000 171.000) scale(0.05126953 -0.05126953)" fill="#111111"/>
<path d="M42 1184H481V0H841V1184H1279V1490H42Z" transform="translate(422.468 171.000) scale(0.05126953 -0.05126953)" fill="#111111"/>
<path d="M96 0H1116V306H456V1490H96Z" transform="translate(499.195 171.000) scale(0.05126953 -0.05126953)" fill="#111111"/>
<path d="M5 0H396L487 287H1016L1104 0H1506L991 1490H517ZM577 568 604 655C656 821 704 984 755 1167C805 984 853 821 902 655L929 568Z" transform="translate(567.565 171.000) scale(0.05126953 -0.05126953)" fill="#111111"/>
<path d="M689 -24C1073 -24 1301 153 1301 453C1301 683 1158 814 828 880L697 906C527 941 456 986 456 1067C456 1160 551 1225 687 1225C829 1225 924 1149 934 1026H1267C1258 1331 1039 1514 682 1514C332 1514 96 1327 96 1050C96 833 245 689 536 629L689 598C868 561 945 512 945 427C945 329 844 265 692 265C520 265 415 349 410 492H67C67 163 292 -24 689 -24Z" transform="translate(654.034 171.000) scale(0.05126953 -0.05126953)" fill="#111111"/>
</g>
<g id="product-name" data-version="2" data-alignment="visible width matches atlas-wordmark">
<path d="M417 1490H150V0H417Z" transform="translate(331.525000 232.500000) scale(0.03154296 -0.03154296)" fill="#0EA5A3"/>
<path d="M150 0H412V752C412 865 406 1071 402 1240C457 1048 517 849 552 752L831 0H1058L1333 752C1368 852 1431 1057 1482 1248C1479 1071 1473 863 1473 752V0H1739V1490H1336L1056 721C1027 632 981 448 946 301C912 450 865 633 835 721L552 1490H150Z" transform="translate(373.780296 232.500000) scale(0.03154296 -0.03154296)" fill="#0EA5A3"/>
<path d="M150 0H417V504H703C1047 504 1232 711 1232 997C1232 1281 1050 1490 707 1490H150ZM417 724V1266H666C870 1266 959 1156 959 997C959 838 870 724 668 724Z" transform="translate(457.735425 232.500000) scale(0.03154296 -0.03154296)" fill="#0EA5A3"/>
<path d="M50 0H342L464 369H1021L1148 0H1441L909 1490H570ZM535 584 598 774C639 907 684 1074 737 1282C792 1076 839 911 883 774L948 584Z" transform="translate(528.852253 232.500000) scale(0.03154296 -0.03154296)" fill="#0EA5A3"/>
<path d="M785 -20C1137 -20 1373 211 1414 496H1144C1110 320 966 219 788 219C546 219 371 402 371 744C371 1082 545 1271 789 1271C967 1271 1111 1170 1144 994H1413C1366 1320 1112 1510 785 1510C396 1510 103 1226 103 744C103 264 393 -20 785 -20Z" transform="translate(604.889892 232.500000) scale(0.03154296 -0.03154296)" fill="#0EA5A3"/>
<path d="M83 1265H543V0H810V1265H1269V1490H83Z" transform="translate(680.706750 232.500000) scale(0.03154296 -0.03154296)" fill="#0EA5A3"/>
</g>
</svg>
